<svg width="44" height="44" viewBox="0 0 44 44" fill="none" xmlns="http://www.w3.org/2000/svg">
<g filter="url(#filter0_d_1154_39)">
<rect x="1" y="1" width="42" height="42" rx="12" fill="white"/>
<g clip-path="url(#clip0_1154_39)">
<path fill-rule="evenodd" clip-rule="evenodd" d="M25.6914 24.7776C23.9093 26.0094 21.3263 26.6667 19.1023 26.6667C15.984 26.6667 13.1767 25.585 11.0529 23.7861C10.886 23.6447 11.0355 23.4519 11.2358 23.562C13.5278 24.8126 16.3618 25.565 19.2892 25.565C21.2635 25.565 23.4354 25.1819 25.4324 24.387C25.7341 24.2668 25.9864 24.5723 25.6914 24.7776Z" fill="#FF9900"/>
<path fill-rule="evenodd" clip-rule="evenodd" d="M26.4324 23.9827C26.2055 23.7098 24.9267 23.8537 24.3527 23.9176C24.1778 23.9376 24.1511 23.7949 24.3086 23.6923C25.3271 23.02 26.9984 23.214 27.1933 23.4394C27.3882 23.666 27.1426 25.2371 26.1855 25.9869C26.0386 26.1021 25.8985 26.0408 25.9639 25.888C26.1788 25.3848 26.6607 24.2568 26.4324 23.9827Z" fill="#FF9900"/>
<path fill-rule="evenodd" clip-rule="evenodd" d="M24.3924 18.9464V18.2929C24.3924 18.194 24.4725 18.1277 24.5686 18.1277H27.6883C27.7884 18.1277 27.8685 18.1953 27.8685 18.2929V18.8525C27.8671 18.9464 27.783 19.0691 27.6335 19.2631L26.017 21.4276C26.6177 21.4138 27.2517 21.4977 27.7964 21.7856C27.9192 21.8507 27.9526 21.9459 27.9619 22.0398V22.7371C27.9619 22.8322 27.8498 22.9436 27.7323 22.886C26.7725 22.4141 25.4977 22.3627 24.4364 22.891C24.3283 22.9461 24.2148 22.8359 24.2148 22.7408V22.0786C24.2148 21.9722 24.2162 21.7906 24.3296 21.6292L26.2025 19.1104H24.5726C24.4725 19.1104 24.3924 19.0441 24.3924 18.9464Z" fill="black"/>
<path fill-rule="evenodd" clip-rule="evenodd" d="M13.0127 23.0237H12.0636C11.9728 23.0175 11.9007 22.9536 11.894 22.8723V18.3042C11.894 18.2128 11.9755 18.1402 12.0769 18.1402H12.962C13.0541 18.144 13.1275 18.2103 13.1342 18.2929V18.8901H13.1515C13.3825 18.313 13.8163 18.0438 14.401 18.0438C14.995 18.0438 15.3661 18.313 15.6331 18.8901C15.8627 18.313 16.3846 18.0438 16.944 18.0438C17.3418 18.0438 17.777 18.1978 18.0426 18.5433C18.3429 18.9276 18.2815 19.486 18.2815 19.9755L18.2802 22.8585C18.2802 22.9499 18.1988 23.0237 18.0973 23.0237H17.1495C17.0548 23.0175 16.9787 22.9461 16.9787 22.8585V20.4374C16.9787 20.2446 16.9974 19.7639 16.952 19.5811C16.8812 19.2744 16.669 19.188 16.394 19.188C16.1644 19.188 15.9241 19.332 15.8267 19.5623C15.7292 19.7927 15.7386 20.1783 15.7386 20.4374V22.8585C15.7386 22.9499 15.6571 23.0237 15.5557 23.0237H14.6079C14.5118 23.0175 14.437 22.9461 14.437 22.8585L14.4357 20.4374C14.4357 19.9279 14.5251 19.178 13.851 19.178C13.1689 19.178 13.1956 19.9091 13.1956 20.4374V22.8585C13.1956 22.9499 13.1141 23.0237 13.0127 23.0237" fill="black"/>
<path fill-rule="evenodd" clip-rule="evenodd" d="M30.5548 18.0438C31.9631 18.0438 32.7253 19.178 32.7253 20.6202C32.7253 22.0135 31.883 23.1189 30.5548 23.1189C29.1718 23.1189 28.4189 21.9847 28.4189 20.5713C28.4189 19.1492 29.1812 18.0438 30.5548 18.0438ZM30.5628 18.9765C29.8633 18.9765 29.8193 19.8703 29.8193 20.4274C29.8193 20.9857 29.8099 22.1775 30.5548 22.1775C31.2903 22.1775 31.325 21.2161 31.325 20.6302C31.325 20.2446 31.3077 19.7839 31.1835 19.4184C31.0767 19.1004 30.8645 18.9765 30.5628 18.9765Z" fill="black"/>
<path fill-rule="evenodd" clip-rule="evenodd" d="M34.5514 23.0237H33.6063C33.5115 23.0175 33.4354 22.9461 33.4354 22.8585L33.4341 18.2892C33.4421 18.2053 33.5208 18.1402 33.617 18.1402H34.4967C34.5794 18.144 34.6475 18.1966 34.6662 18.2679V18.9664H34.6835C34.9492 18.3418 35.3216 18.0438 35.977 18.0438C36.4029 18.0438 36.818 18.1878 37.085 18.5821C37.3333 18.9477 37.3333 19.5623 37.3333 20.0042V22.8798C37.3226 22.9599 37.2439 23.0237 37.1504 23.0237H36.1986C36.1119 23.0175 36.0398 22.9574 36.0304 22.8798V20.3986C36.0304 19.8991 36.0919 19.168 35.4364 19.168C35.2055 19.168 34.9932 19.3132 34.8878 19.5335C34.7543 19.8127 34.7369 20.0906 34.7369 20.3986V22.8585C34.7356 22.9499 34.6528 23.0237 34.5514 23.0237" fill="black"/>
<path fill-rule="evenodd" clip-rule="evenodd" d="M21.9055 20.8417C21.9055 21.1885 21.9149 21.4777 21.728 21.7856C21.5771 22.036 21.3368 22.19 21.0712 22.19C20.7068 22.19 20.4932 21.9296 20.4932 21.5453C20.4932 20.7867 21.218 20.6489 21.9055 20.6489V20.8417V20.8417ZM22.8626 23.0112C22.7999 23.0638 22.7091 23.0675 22.6384 23.0325C22.3233 22.7871 22.2659 22.6732 22.0937 22.4391C21.5731 22.9374 21.2034 23.0863 20.5292 23.0863C19.7296 23.0863 19.1089 22.6244 19.1089 21.6993C19.1089 20.9769 19.5254 20.485 20.1207 20.2446C20.636 20.0318 21.3555 19.9942 21.9055 19.9354V19.8202C21.9055 19.6086 21.9229 19.3583 21.7894 19.1755C21.6746 19.0115 21.453 18.9439 21.2567 18.9439C20.895 18.9439 20.5733 19.1179 20.4945 19.4785C20.4785 19.5586 20.4158 19.6374 20.329 19.6412L19.4092 19.5486C19.3318 19.5323 19.245 19.4734 19.2677 19.362C19.4787 18.3155 20.4878 18 21.3902 18C21.8521 18 22.4555 18.1152 22.8199 18.4432C23.2818 18.8475 23.2377 19.3871 23.2377 19.9742V21.3613C23.2377 21.7781 23.422 21.9609 23.5955 22.1862C23.6556 22.2664 23.6689 22.3627 23.5915 22.4228C23.3979 22.5743 23.0535 22.856 22.864 23.0137L22.8626 23.0112" fill="black"/>
<path fill-rule="evenodd" clip-rule="evenodd" d="M9.46312 20.8419C9.46312 21.1887 9.47246 21.4779 9.28558 21.7859C9.13473 22.0362 8.89579 22.1902 8.62881 22.1902C8.26438 22.1902 8.05213 21.9298 8.05213 21.5455C8.05213 20.7869 8.77698 20.6492 9.46312 20.6492V20.8419ZM10.4202 23.0114C10.3575 23.064 10.2667 23.0678 10.196 23.0327C9.88094 22.7873 9.82488 22.6734 9.65134 22.4393C9.13073 22.9376 8.7623 23.0865 8.08684 23.0865C7.28857 23.0865 6.6665 22.6246 6.6665 21.6995C6.6665 20.9771 7.08433 20.4852 7.67836 20.2448C8.19363 20.032 8.91314 19.9944 9.46312 19.9356V19.8204C9.46312 19.6089 9.48047 19.3585 9.34832 19.1757C9.23218 19.0117 9.01059 18.9441 8.81569 18.9441C8.45394 18.9441 8.13089 19.1181 8.05213 19.4787C8.03611 19.5588 7.97337 19.6377 7.88794 19.6414L6.96686 19.5488C6.88943 19.5325 6.804 19.4737 6.82536 19.3622C7.03761 18.3157 8.04546 18.0002 8.94785 18.0002C9.40972 18.0002 10.0131 18.1154 10.3775 18.4434C10.8394 18.8477 10.7954 19.3873 10.7954 19.9744V21.3615C10.7954 21.7783 10.9796 21.9611 11.1531 22.1865C11.2145 22.2666 11.2279 22.363 11.1504 22.4231C10.9569 22.5745 10.6125 22.8562 10.4229 23.0139L10.4202 23.0114" fill="black"/>
</g>
</g>
<defs>
<filter id="filter0_d_1154_39" x="0" y="0" width="44" height="44" filterUnits="userSpaceOnUse" color-interpolation-filters="sRGB">
<feFlood flood-opacity="0" result="BackgroundImageFix"/>
<feColorMatrix in="SourceAlpha" type="matrix" values="0 0 0 0 0 0 0 0 0 0 0 0 0 0 0 0 0 0 127 0" result="hardAlpha"/>
<feOffset/>
<feGaussianBlur stdDeviation="0.5"/>
<feColorMatrix type="matrix" values="0 0 0 0 0.220833 0 0 0 0 0.220833 0 0 0 0 0.220833 0 0 0 0.8 0"/>
<feBlend mode="normal" in2="BackgroundImageFix" result="effect1_dropShadow_1154_39"/>
<feBlend mode="normal" in="SourceGraphic" in2="effect1_dropShadow_1154_39" result="shape"/>
</filter>
<clipPath id="clip0_1154_39">
<rect width="30.6667" height="8.66667" fill="white" transform="translate(6.6665 18)"/>
</clipPath>
</defs>
</svg>
