<svg width="44" height="44" viewBox="0 0 44 44" fill="none" xmlns="http://www.w3.org/2000/svg">
<g filter="url(#filter0_d_1154_328)">
<rect x="1" y="1" width="42" height="42" rx="12" fill="white"/>
<path d="M19.6317 18.8367C20.4866 18.8367 21.2363 18.9614 21.8809 19.2109C22.5255 19.4465 23.0229 19.7791 23.3733 20.2087C23.7376 20.6245 23.9198 21.0888 23.9198 21.6015C23.9198 22.1559 23.7236 22.6132 23.3312 22.9736C22.9529 23.3339 22.4344 23.5141 21.7758 23.5141C21.1031 23.5141 20.5776 23.3478 20.1993 23.0151C19.8209 22.6687 19.6317 22.2044 19.6317 21.6223C19.6317 21.3452 19.6738 21.0541 19.7579 20.7492C19.1693 20.9017 18.6438 21.2066 18.1814 21.6639C17.733 22.1074 17.4317 22.6964 17.2775 23.4309C17.1935 23.8467 17.1514 24.2209 17.1514 24.5535C17.1514 25.3019 17.3616 25.8701 17.782 26.2581C18.2024 26.6462 18.805 26.8402 19.5897 26.8402C20.0381 26.8402 20.4235 26.7986 20.7458 26.7155C21.0681 26.6184 21.3974 26.4937 21.7337 26.3413C22.014 26.2027 22.2172 26.1334 22.3433 26.1334C22.4274 26.1334 22.4834 26.1542 22.5115 26.1957C22.5395 26.2235 22.5535 26.2928 22.5535 26.4036C22.5675 26.9164 22.3503 27.4569 21.9019 28.0251C21.4675 28.5795 20.8579 29.0507 20.0732 29.4387C19.3024 29.8129 18.4336 30 17.4667 30C16.4578 30 15.5609 29.8198 14.7762 29.4595C14.0055 29.0853 13.4029 28.5587 12.9685 27.8796C12.5481 27.1867 12.3379 26.3828 12.3379 25.4682C12.3379 25.0385 12.3939 24.5604 12.506 24.0338C12.8844 22.3153 13.7182 21.0195 15.0074 20.1464C16.3106 19.2733 17.8521 18.8367 19.6317 18.8367Z" fill="#410EAE"/>
<path d="M30.5226 16.0927C31.9239 16.0927 33.1361 16.2937 34.159 16.6956C35.196 17.0836 35.9808 17.5964 36.5133 18.2339C37.0598 18.8714 37.333 19.5505 37.333 20.2712C37.333 20.5345 37.291 20.8047 37.2069 21.0819C37.0107 21.664 36.6814 22.1213 36.219 22.4539C35.7565 22.7866 35.0489 23.0914 34.096 23.3686C33.1431 23.6319 31.6787 23.9507 29.7029 24.3249C28.5119 24.5466 27.615 24.7476 27.0125 24.9277C26.4239 25.094 26.0105 25.2742 25.7723 25.4682C25.5481 25.6623 25.422 25.9117 25.3939 26.2166H31.4475C32.2883 26.2166 32.9259 26.1057 33.3603 25.884C33.7947 25.6623 34.2011 25.3643 34.5794 24.9901C34.7476 24.8099 34.8807 24.6852 34.9788 24.6159C35.0909 24.5328 35.217 24.4912 35.3572 24.4912C35.6094 24.4912 35.8406 24.6644 36.0508 25.0109C36.261 25.3435 36.3661 25.7731 36.3661 26.2998C36.3661 26.6462 36.3031 27.0412 36.1769 27.4847C35.8967 28.3717 35.3922 29.0022 34.6635 29.3764C33.9348 29.7506 32.8348 29.9377 31.3634 29.9377H23.9436C23.4952 29.9377 23.1308 29.7506 22.8505 29.3764C22.5843 29.0022 22.4512 28.4964 22.4512 27.8589C22.4512 27.3877 22.5353 26.8749 22.7034 26.3205C22.9977 25.3643 23.5372 24.5951 24.3219 24.0131C25.1067 23.4171 26.2137 22.9182 27.6431 22.5163C28.5959 22.2391 29.3316 21.9689 29.85 21.7056C30.3685 21.4284 30.7398 21.1581 30.964 20.8948C31.1882 20.6176 31.3634 20.2781 31.4895 19.8762C31.5596 19.599 31.5946 19.3704 31.5946 19.1902C31.5946 18.8021 31.4755 18.4903 31.2373 18.2547C30.9991 18.0191 30.6768 17.9013 30.2704 17.9013C30.1583 17.9013 29.9621 17.929 29.6818 17.9845C29.6958 18.0676 29.7029 18.1924 29.7029 18.3587C29.7029 19.3011 29.4156 20.0079 28.8412 20.4791C28.2666 20.9503 27.545 21.1859 26.6761 21.1859C26.0315 21.1859 25.5201 21.0196 25.1417 20.6869C24.7633 20.3543 24.5742 19.9039 24.5742 19.3357C24.5742 19.0585 24.6092 18.8091 24.6793 18.5873C24.9315 17.7697 25.5691 17.1529 26.5921 16.7372C27.615 16.3076 28.9253 16.0927 30.5226 16.0927Z" fill="#410EAE"/>
<path d="M6.6665 14.7838L10.9601 17.0235L6.85197 19.5811L6.6665 14.7838Z" fill="#FA6D87"/>
<path d="M17.0769 15.7219C16.9709 14.7709 16.1054 14.085 15.1439 14.1898C14.1823 14.2946 13.4887 15.1505 13.5947 16.1015C13.7007 17.0525 14.5661 17.7385 15.5277 17.6336C16.4893 17.5288 17.1829 16.6729 17.0769 15.7219Z" fill="url(#paint0_linear_1154_328)"/>
</g>
<defs>
<filter id="filter0_d_1154_328" x="0" y="0" width="44" height="44" filterUnits="userSpaceOnUse" color-interpolation-filters="sRGB">
<feFlood flood-opacity="0" result="BackgroundImageFix"/>
<feColorMatrix in="SourceAlpha" type="matrix" values="0 0 0 0 0 0 0 0 0 0 0 0 0 0 0 0 0 0 127 0" result="hardAlpha"/>
<feOffset/>
<feGaussianBlur stdDeviation="0.5"/>
<feColorMatrix type="matrix" values="0 0 0 0 0.220833 0 0 0 0 0.220833 0 0 0 0 0.220833 0 0 0 0.8 0"/>
<feBlend mode="normal" in2="BackgroundImageFix" result="effect1_dropShadow_1154_328"/>
<feBlend mode="normal" in="SourceGraphic" in2="effect1_dropShadow_1154_328" result="shape"/>
</filter>
<linearGradient id="paint0_linear_1154_328" x1="13.5947" y1="16.1015" x2="17.076" y2="15.7135" gradientUnits="userSpaceOnUse">
<stop stop-color="#A567F4"/>
<stop offset="1" stop-color="#FA10FF"/>
</linearGradient>
</defs>
</svg>
