<svg width="44" height="44" viewBox="0 0 44 44" fill="none" xmlns="http://www.w3.org/2000/svg">
<g filter="url(#filter0_d_1159_365)">
<rect x="1" y="1" width="42" height="42" rx="12" fill="white"/>
<g clip-path="url(#clip0_1159_365)">
<path d="M32.6271 11.9895C30.6725 11.0686 28.5765 10.3902 26.385 10.0016C26.3451 9.99413 26.3053 10.0129 26.2847 10.0504C26.0151 10.5426 25.7166 11.1848 25.5075 11.6896C23.1504 11.3273 20.8054 11.3273 18.4966 11.6896C18.2874 11.1736 17.978 10.5426 17.7072 10.0504C17.6867 10.0141 17.6468 9.99538 17.6069 10.0016C15.4166 10.389 13.3206 11.0674 11.3648 11.9895C11.3479 11.997 11.3334 12.0095 11.3237 12.0257C7.34806 18.1242 6.25896 24.0727 6.79323 29.9475C6.79565 29.9762 6.81137 30.0037 6.83312 30.0212C9.45616 31.999 11.997 33.1998 14.4907 33.9956C14.5306 34.0081 14.5729 33.9931 14.5983 33.9594C15.1882 33.1323 15.714 32.2602 16.1648 31.3431C16.1914 31.2894 16.166 31.2257 16.1117 31.2044C15.2776 30.8796 14.4834 30.4835 13.7195 30.0337C13.6591 29.9975 13.6542 29.9088 13.7098 29.8663C13.8706 29.7426 14.0314 29.6139 14.1849 29.4839C14.2127 29.4602 14.2514 29.4552 14.284 29.4702C19.3028 31.8229 24.7363 31.8229 29.6958 29.4702C29.7285 29.454 29.7672 29.459 29.7962 29.4827C29.9497 29.6126 30.1105 29.7426 30.2725 29.8663C30.328 29.9088 30.3244 29.9975 30.264 30.0337C29.5 30.4922 28.7059 30.8796 27.8706 31.2032C27.8162 31.2244 27.792 31.2894 27.8186 31.3431C28.2792 32.2589 28.805 33.131 29.384 33.9582C29.4082 33.9931 29.4517 34.0081 29.4916 33.9956C31.9973 33.1998 34.5382 31.999 37.1612 30.0212C37.1842 30.0037 37.1987 29.9775 37.2011 29.9488C37.8406 23.1568 36.1301 17.2571 32.667 12.0269C32.6585 12.0095 32.6441 11.997 32.6271 11.9895ZM16.9143 26.3704C15.4033 26.3704 14.1583 24.946 14.1583 23.1968C14.1583 21.4476 15.3792 20.0233 16.9143 20.0233C18.4615 20.0233 19.6945 21.4601 19.6703 23.1968C19.6703 24.946 18.4494 26.3704 16.9143 26.3704ZM27.1042 26.3704C25.5933 26.3704 24.3483 24.946 24.3483 23.1968C24.3483 21.4476 25.5691 20.0233 27.1042 20.0233C28.6515 20.0233 29.8844 21.4601 29.8603 23.1968C29.8603 24.946 28.6515 26.3704 27.1042 26.3704Z" fill="#23272A"/>
</g>
</g>
<defs>
<filter id="filter0_d_1159_365" x="0" y="0" width="44" height="44" filterUnits="userSpaceOnUse" color-interpolation-filters="sRGB">
<feFlood flood-opacity="0" result="BackgroundImageFix"/>
<feColorMatrix in="SourceAlpha" type="matrix" values="0 0 0 0 0 0 0 0 0 0 0 0 0 0 0 0 0 0 127 0" result="hardAlpha"/>
<feOffset/>
<feGaussianBlur stdDeviation="0.5"/>
<feColorMatrix type="matrix" values="0 0 0 0 0.220833 0 0 0 0 0.220833 0 0 0 0 0.220833 0 0 0 0.8 0"/>
<feBlend mode="normal" in2="BackgroundImageFix" result="effect1_dropShadow_1159_365"/>
<feBlend mode="normal" in="SourceGraphic" in2="effect1_dropShadow_1159_365" result="shape"/>
</filter>
<clipPath id="clip0_1159_365">
<rect width="30.6667" height="24" fill="white" transform="translate(6.6665 10)"/>
</clipPath>
</defs>
</svg>
