<svg width="44" height="44" viewBox="0 0 44 44" fill="none" xmlns="http://www.w3.org/2000/svg">
<g filter="url(#filter0_d_1154_873)">
<rect x="1" y="1" width="42" height="42" rx="12" fill="white"/>
<g clip-path="url(#clip0_1154_873)">
<path d="M8.43086 24.2847C8.56045 24.6292 8.73987 24.9239 8.96915 25.1685C9.19843 25.4133 9.47006 25.6005 9.78403 25.7304C10.098 25.8602 10.4394 25.9251 10.8083 25.9251C11.1671 25.9251 11.5036 25.8577 11.8176 25.7228C12.1316 25.588 12.4057 25.3982 12.6399 25.1536C12.8742 24.9089 13.0561 24.6167 13.1857 24.2772C13.3153 23.9376 13.3801 23.5581 13.3801 23.1386V16.6667H14.95V27.1536H13.395V26.1798C13.0461 26.5493 12.6349 26.8339 12.1615 27.0337C11.6879 27.2334 11.1771 27.3333 10.6289 27.3333C10.0706 27.3333 9.54979 27.2359 9.06632 27.0412C8.58288 26.8464 8.16419 26.5693 7.81035 26.2097C7.45651 25.8502 7.17737 25.4183 6.97304 24.9139C6.76867 24.4095 6.6665 23.8477 6.6665 23.2285V16.6667H8.23648V23.1386C8.23648 23.5581 8.30126 23.9401 8.43086 24.2847Z" fill="#010202"/>
<path d="M17.6562 16.6667V20.4869C18.005 20.1373 18.4088 19.8602 18.8673 19.6554C19.3258 19.4507 19.8243 19.3483 20.3625 19.3483C20.9208 19.3483 21.444 19.4531 21.9325 19.6629C22.4209 19.8726 22.8445 20.1573 23.2034 20.5168C23.5623 20.8764 23.8464 21.3009 24.0557 21.7902C24.2651 22.2797 24.3697 22.799 24.3697 23.3483C24.3697 23.8976 24.2651 24.4145 24.0557 24.8988C23.8464 25.3833 23.5623 25.8052 23.2034 26.1647C22.8445 26.5243 22.4209 26.809 21.9325 27.0187C21.444 27.2284 20.9207 27.3333 20.3625 27.3333C19.8242 27.3333 19.3233 27.2309 18.8598 27.0262C18.3963 26.8214 17.9901 26.5443 17.6412 26.1947V27.1535H16.146V16.6667H17.6562ZM17.8281 24.382C17.9627 24.7016 18.1496 24.9813 18.3888 25.221C18.6281 25.4607 18.9072 25.6505 19.2261 25.7903C19.5451 25.9301 19.889 26 20.2579 26C20.6167 26 20.9556 25.9301 21.2746 25.7903C21.5936 25.6505 21.8702 25.4607 22.1045 25.221C22.3387 24.9813 22.5256 24.7016 22.6652 24.382C22.8047 24.0624 22.8745 23.7179 22.8745 23.3483C22.8745 22.9788 22.8047 22.6317 22.6652 22.3071C22.5256 21.9825 22.3387 21.7004 22.1045 21.4607C21.8702 21.221 21.5936 21.0337 21.2746 20.8989C20.9556 20.7641 20.6167 20.6966 20.2579 20.6966C19.899 20.6966 19.5601 20.764 19.2411 20.8989C18.9222 21.0337 18.6431 21.221 18.4038 21.4607C18.1646 21.7004 17.9752 21.9825 17.8356 22.3071C17.6961 22.6317 17.6263 22.9788 17.6263 23.3483C17.6263 23.7179 17.6935 24.0624 17.8281 24.382Z" fill="#010202"/>
<path d="M25.2218 21.8052C25.4212 21.3258 25.6954 20.9039 26.0442 20.5393C26.393 20.1748 26.8068 19.8877 27.2853 19.6779C27.7637 19.4682 28.2821 19.3633 28.8403 19.3633C29.3885 19.3633 29.8969 19.4632 30.3654 19.6629C30.8339 19.8627 31.2376 20.1399 31.5765 20.4944C31.9155 20.849 32.1796 21.2685 32.369 21.7528C32.5584 22.2372 32.6531 22.7641 32.6531 23.3334V23.8278H26.4479C26.4978 24.1374 26.5975 24.4245 26.747 24.6892C26.8965 24.9538 27.0834 25.1836 27.3077 25.3783C27.532 25.5731 27.7862 25.7254 28.0703 25.8352C28.3544 25.9451 28.6559 26.0001 28.9749 26.0001C29.882 26.0001 30.6147 25.6255 31.1729 24.8764L32.2644 25.6854C31.8856 26.1948 31.4171 26.5943 30.8589 26.8839C30.3007 27.1735 29.6727 27.3184 28.9749 27.3184C28.4067 27.3184 27.8759 27.2185 27.3825 27.0187C26.8891 26.819 26.4604 26.5393 26.0966 26.1798C25.7328 25.8202 25.4462 25.3982 25.2369 24.9139C25.0275 24.4295 24.9229 23.9026 24.9229 23.3333C24.9228 22.794 25.0225 22.2847 25.2218 21.8052ZM27.3226 21.2135C26.899 21.568 26.6174 22.0399 26.4778 22.6292H31.128C30.9984 22.0399 30.7218 21.568 30.2981 21.2135C29.8745 20.8589 29.3786 20.6817 28.8104 20.6817C28.2422 20.6817 27.7463 20.8589 27.3226 21.2135Z" fill="#010202"/>
<path d="M35.4789 21.3858C35.1599 21.7353 35.0004 22.2097 35.0004 22.809V27.1536H33.4902V19.5131H34.9854V20.4569C35.1749 20.1473 35.4216 19.9026 35.7256 19.7229C36.0296 19.5431 36.391 19.4532 36.8096 19.4532H37.333V20.8614H36.705C36.2066 20.8614 35.7979 21.0362 35.4789 21.3858Z" fill="#010202"/>
</g>
</g>
<defs>
<filter id="filter0_d_1154_873" x="0" y="0" width="44" height="44" filterUnits="userSpaceOnUse" color-interpolation-filters="sRGB">
<feFlood flood-opacity="0" result="BackgroundImageFix"/>
<feColorMatrix in="SourceAlpha" type="matrix" values="0 0 0 0 0 0 0 0 0 0 0 0 0 0 0 0 0 0 127 0" result="hardAlpha"/>
<feOffset/>
<feGaussianBlur stdDeviation="0.5"/>
<feColorMatrix type="matrix" values="0 0 0 0 0.220833 0 0 0 0 0.220833 0 0 0 0 0.220833 0 0 0 0.8 0"/>
<feBlend mode="normal" in2="BackgroundImageFix" result="effect1_dropShadow_1154_873"/>
<feBlend mode="normal" in="SourceGraphic" in2="effect1_dropShadow_1154_873" result="shape"/>
</filter>
<clipPath id="clip0_1154_873">
<rect width="30.6667" height="10.6667" fill="white" transform="translate(6.6665 16.6667)"/>
</clipPath>
</defs>
</svg>
